<svg width="42" height="47" viewBox="0 0 42 47" fill="none" xmlns="http://www.w3.org/2000/svg">
<path d="M33.1441 29.185C35.5361 29.185 37.5693 30.0222 39.2437 31.6966C40.9181 33.371 41.7553 35.4041 41.7553 37.7961C41.7553 40.1881 40.9181 42.2213 39.2437 43.8957C37.5693 45.57 35.5361 46.4072 33.1441 46.4072C30.7522 46.4072 28.719 45.57 27.0446 43.8957C25.3702 42.2213 24.533 40.1881 24.533 37.7961C24.533 36.8991 24.6526 36.032 24.8918 35.1948L16.1013 29.7232C14.4269 31.278 12.4536 32.0554 10.1812 32.0554C7.7892 32.0554 5.75603 31.2182 4.08164 29.5438C2.40726 27.8694 1.57007 25.8362 1.57007 23.4443C1.57007 21.0523 2.40726 19.0191 4.08164 17.3447C5.75603 15.6703 7.7892 14.8332 10.1812 14.8332C12.4536 14.8332 14.4269 15.6105 16.1013 17.1653L24.8918 11.6937C24.6526 10.8565 24.533 9.9894 24.533 9.09241C24.533 6.70044 25.3702 4.66726 27.0446 2.99287C28.719 1.31849 30.7522 0.4813 33.1441 0.4813C35.5361 0.4813 37.5693 1.31849 39.2437 2.99287C40.9181 4.66726 41.7553 6.70044 41.7553 9.09241C41.7553 11.4844 40.9181 13.5176 39.2437 15.1919C37.5693 16.8663 35.5361 17.7035 33.1441 17.7035C30.8718 17.7035 28.8984 16.9261 27.224 15.3713L18.4335 20.843C18.9717 22.5772 18.9717 24.3114 18.4335 26.0455L27.224 31.5172C28.8984 29.9624 30.8718 29.185 33.1441 29.185ZM36.1939 6.04264C36.1939 6.04264 35.9846 5.83335 35.566 5.41475C35.1474 4.99615 34.3401 4.78686 33.1441 4.78686C31.9482 4.78686 30.9316 5.20545 30.0944 6.04264C29.2572 6.87983 28.8386 7.89642 28.8386 9.09241C28.8386 10.2884 29.2572 11.305 30.0944 12.1422C30.9316 12.9794 31.9482 13.398 33.1441 13.398C34.3401 13.398 35.3567 12.9794 36.1939 12.1422C37.0311 11.305 37.4497 10.2884 37.4497 9.09241C37.4497 7.89642 37.0311 6.87983 36.1939 6.04264ZM7.13141 26.494C7.13141 26.494 7.34071 26.7033 7.7593 27.1219C8.1779 27.5405 8.98519 27.7498 10.1812 27.7498C11.3772 27.7498 12.3938 27.3312 13.2309 26.494C14.0681 25.6568 14.4867 24.6403 14.4867 23.4443C14.4867 22.2483 14.0681 21.2317 13.2309 20.3945C12.3938 19.5573 11.3772 19.1387 10.1812 19.1387C8.98519 19.1387 7.9686 19.5573 7.13141 20.3945C6.29422 21.2317 5.87562 22.2483 5.87562 23.4443C5.87562 24.6403 6.29422 25.6568 7.13141 26.494ZM30.0944 40.8459C30.0944 40.8459 30.3037 41.0552 30.7223 41.4738C31.1409 41.8924 31.9482 42.1017 33.1441 42.1017C34.3401 42.1017 35.3567 41.6831 36.1939 40.8459C37.0311 40.0087 37.4497 38.9921 37.4497 37.7961C37.4497 36.6001 37.0311 35.5835 36.1939 34.7463C35.3567 33.9092 34.3401 33.4906 33.1441 33.4906C31.9482 33.4906 30.9316 33.9092 30.0944 34.7463C29.2572 35.5835 28.8386 36.6001 28.8386 37.7961C28.8386 38.9921 29.2572 40.0087 30.0944 40.8459Z" fill="white"/>
</svg>
