<svg width="44" height="44" viewBox="0 0 44 44" fill="none" xmlns="http://www.w3.org/2000/svg">
<g clip-path="url(#clip0_168_315)">
<path d="M42.625 39.875C43.026 39.875 43.3555 40.0039 43.6133 40.2617C43.8711 40.5195 44 40.849 44 41.25V43.3125C44 43.7708 43.7708 44 43.3125 44H0.6875C0.229167 44 0 43.7708 0 43.3125V41.25C0 40.849 0.128906 40.5195 0.386719 40.2617C0.644531 40.0039 0.973958 39.875 1.375 39.875H3.17969L18.6484 1.03125C18.9349 0.34375 19.4219 0 20.1094 0H23.8906C24.5781 0 25.0651 0.34375 25.3516 1.03125L40.8203 39.875H42.625ZM31.4531 27.5L27.5859 17.875H16.4141L12.5469 27.5H31.4531ZM21.9141 4.125L18.0469 13.75H25.9531L22.0859 4.125H21.9141ZM10.9141 31.625L7.64844 39.875H36.3516L33.0859 31.625H10.9141Z" fill="#1A6BA1"/>
</g>
<defs>
<clipPath id="clip0_168_315">
<rect width="44" height="44" fill="white" transform="matrix(1 0 0 -1 0 44)"/>
</clipPath>
</defs>
</svg>
