<svg width="56" height="48" viewBox="0 0 56 48" fill="none" xmlns="http://www.w3.org/2000/svg">
<g clip-path="url(#clip0_168_313)">
<path d="M50.594 21.6344C52.1642 22.3719 53.429 23.4935 54.3886 24.9992C55.3481 26.505 55.8279 28.1797 55.8279 30.0235C55.8279 32.5432 54.9847 34.6943 53.2982 36.4766C51.6117 38.2589 49.5763 39.15 47.192 39.15H33.7584C31.3741 39.15 29.3387 38.2589 27.6523 36.4766C25.9658 34.6943 25.1226 32.5432 25.1226 30.0235C25.1226 27.688 25.864 25.6446 27.3469 23.893C28.8299 22.1414 30.6472 21.1427 32.7989 20.8969C33.6712 19.299 34.8924 18.0084 36.4626 17.025C38.0328 16.0417 39.7192 15.55 41.522 15.55C43.4992 15.55 45.302 16.1032 46.9303 17.2094C48.5586 18.3157 49.7799 19.7907 50.594 21.6344ZM47.192 34.725C48.4133 34.725 49.46 34.2641 50.3323 33.3422C51.2047 32.4203 51.6408 31.3141 51.6408 30.0235C51.6408 28.7328 51.2192 27.6419 50.376 26.7508C49.5327 25.8597 48.5296 25.3834 47.3665 25.3219C47.1339 23.7854 46.4651 22.5102 45.3602 21.4961C44.2552 20.4821 42.9759 19.975 41.522 19.975C39.9518 19.975 38.6143 20.5282 37.5094 21.6344C36.4044 22.7407 35.7647 24.1235 35.5903 25.7828C34.9506 25.4755 34.34 25.3219 33.7584 25.3219C32.5372 25.3219 31.4904 25.7828 30.6181 26.7047C29.7458 27.6266 29.3096 28.7328 29.3096 30.0235C29.3096 31.3141 29.7458 32.4203 30.6181 33.3422C31.4904 34.2641 32.5372 34.725 33.7584 34.725H47.192ZM22.3312 43.0219L25.3842 38.2281C26.3729 39.2729 27.5069 40.1333 28.7863 40.8094L25.297 46.3406C24.541 47.4469 23.5379 48 22.2875 48C21.0372 48 20.0632 47.4469 19.3653 46.3406L15.8761 40.8094L9.68265 42.1C8.46142 42.3458 7.41464 42.0078 6.54233 41.0859C5.67002 40.1641 5.35017 39.0271 5.58279 37.675L6.80403 31.2219L1.57016 27.4422C0.523387 26.7047 0 25.6753 0 24.3539C0 23.0326 0.523387 22.0032 1.57016 21.2657L6.80403 17.486L5.58279 10.9407C5.35017 9.65004 5.67002 8.54379 6.54233 7.62192C7.41464 6.70004 8.46142 6.36202 9.68265 6.60786L15.8761 7.89848L19.3653 2.36723C20.0632 1.32244 21.0518 0.800049 22.3312 0.800049C23.6105 0.800049 24.5992 1.32244 25.297 2.36723L28.7863 7.89848L34.9797 6.60786C36.2009 6.36202 37.2477 6.70004 38.12 7.62192C38.9923 8.54379 39.3121 9.65004 39.0795 10.9407L38.7306 12.9688C37.0441 13.3375 35.474 14.075 34.0201 15.1813L34.8052 11.125L26.8672 12.7844L22.3312 5.68598L17.7951 12.7844L9.85711 11.125L11.4273 19.5141L4.71048 24.3078L11.4273 29.1016L9.85711 37.5828L17.7951 35.9234L22.3312 43.0219ZM22.3312 19.2375C20.9936 19.2375 19.8451 19.7446 18.8855 20.7586C17.926 21.7727 17.4462 22.9865 17.4462 24.4C17.4462 25.8136 17.926 27.0274 18.8855 28.0414C19.8451 29.0555 20.9936 29.5625 22.3312 29.5625C22.3312 29.624 22.3312 29.7008 22.3312 29.793C22.3312 29.8852 22.3312 29.962 22.3312 30.0235C22.3312 31.2526 22.5638 32.5432 23.029 33.8953C22.9709 33.8953 22.8545 33.9107 22.6801 33.9414C22.5056 33.9721 22.3893 33.9875 22.3312 33.9875C19.8305 33.9875 17.6934 33.0503 15.9197 31.1758C14.146 29.3013 13.2591 27.0427 13.2591 24.4C13.2591 21.7573 14.146 19.4987 15.9197 17.6243C17.6934 15.7498 19.8305 14.8125 22.3312 14.8125C25.3552 14.8125 27.7976 16.1339 29.6586 18.7766C28.2629 19.3297 27.0707 20.0979 26.0821 21.0813C25.0935 19.8521 23.8432 19.2375 22.3312 19.2375Z" fill="#1A6BA1"/>
</g>
<defs>
<clipPath id="clip0_168_313">
<rect width="55.8279" height="47.2" fill="white" transform="matrix(1 0 0 -1 0 48)"/>
</clipPath>
</defs>
</svg>
