<svg width="56" height="48" viewBox="0 0 56 48" fill="none" xmlns="http://www.w3.org/2000/svg">
<g clip-path="url(#clip0_168_332)">
<path d="M50.594 20.8346C52.1642 21.5721 53.429 22.6937 54.3886 24.1994C55.3481 25.7052 55.8279 27.3799 55.8279 29.2237C55.8279 31.7434 54.9847 33.8945 53.2982 35.6768C51.6117 37.4591 49.5763 38.3502 47.192 38.3502H33.7584C31.3741 38.3502 29.3387 37.4591 27.6523 35.6768C25.9658 33.8945 25.1226 31.7434 25.1226 29.2237C25.1226 26.8882 25.864 24.8447 27.3469 23.0932C28.8299 21.3416 30.6472 20.3429 32.7989 20.0971C33.6712 18.4992 34.8924 17.2086 36.4626 16.2252C38.0328 15.2419 39.7192 14.7502 41.522 14.7502C43.4992 14.7502 45.302 15.3034 46.9303 16.4096C48.5586 17.5159 49.7799 18.9908 50.594 20.8346ZM47.192 33.9252C48.4133 33.9252 49.46 33.4643 50.3323 32.5424C51.2047 31.6205 51.6408 30.5143 51.6408 29.2237C51.6408 27.933 51.2192 26.8421 50.376 25.951C49.5327 25.0599 48.5296 24.5836 47.3665 24.5221C47.1339 22.9856 46.4651 21.7104 45.3602 20.6963C44.2552 19.6823 42.9759 19.1752 41.522 19.1752C39.9518 19.1752 38.6143 19.7283 37.5094 20.8346C36.4044 21.9408 35.7647 23.3237 35.5903 24.983C34.9506 24.6757 34.34 24.5221 33.7584 24.5221C32.5372 24.5221 31.4904 24.983 30.6181 25.9049C29.7458 26.8268 29.3096 27.933 29.3096 29.2237C29.3096 30.5143 29.7458 31.6205 30.6181 32.5424C31.4904 33.4643 32.5372 33.9252 33.7584 33.9252H47.192ZM22.3312 42.2221L25.3842 37.4283C26.3729 38.4731 27.5069 39.3335 28.7863 40.0096L25.297 45.5408C24.541 46.6471 23.5379 47.2002 22.2875 47.2002C21.0372 47.2002 20.0632 46.6471 19.3653 45.5408L15.8761 40.0096L9.68265 41.3002C8.46142 41.546 7.41464 41.208 6.54233 40.2861C5.67002 39.3643 5.35017 38.2273 5.58279 36.8752L6.80403 30.4221L1.57016 26.6424C0.523387 25.9049 0 24.8755 0 23.5541C0 22.2328 0.523387 21.2033 1.57016 20.4658L6.80403 16.6862L5.58279 10.1409C5.35017 8.85023 5.67002 7.74399 6.54233 6.82211C7.41464 5.90024 8.46142 5.56222 9.68265 5.80805L15.8761 7.09867L19.3653 1.56743C20.0632 0.522639 21.0518 0.000244141 22.3312 0.000244141C23.6105 0.000244141 24.5992 0.522639 25.297 1.56743L28.7863 7.09867L34.9797 5.80805C36.2009 5.56222 37.2477 5.90024 38.12 6.82211C38.9923 7.74399 39.3121 8.85023 39.0795 10.1409L38.7306 12.169C37.0441 12.5377 35.474 13.2752 34.0201 14.3815L34.8052 10.3252L26.8672 11.9846L22.3312 4.88618L17.7951 11.9846L9.85711 10.3252L11.4273 18.7143L4.71048 23.508L11.4273 28.3018L9.85711 36.783L17.7951 35.1236L22.3312 42.2221ZM22.3312 18.4377C20.9936 18.4377 19.8451 18.9448 18.8855 19.9588C17.926 20.9729 17.4462 22.1867 17.4462 23.6002C17.4462 25.0138 17.926 26.2276 18.8855 27.2416C19.8451 28.2557 20.9936 28.7627 22.3312 28.7627C22.3312 28.8242 22.3312 28.901 22.3312 28.9932C22.3312 29.0854 22.3312 29.1622 22.3312 29.2237C22.3312 30.4528 22.5638 31.7434 23.029 33.0955C22.9709 33.0955 22.8545 33.1109 22.6801 33.1416C22.5056 33.1723 22.3893 33.1877 22.3312 33.1877C19.8305 33.1877 17.6934 32.2505 15.9197 30.376C14.146 28.5015 13.2591 26.2429 13.2591 23.6002C13.2591 20.9575 14.146 18.6989 15.9197 16.8244C17.6934 14.95 19.8305 14.0127 22.3312 14.0127C25.3552 14.0127 27.7976 15.3341 29.6586 17.9768C28.2629 18.5299 27.0707 19.2981 26.0821 20.2815C25.0935 19.0523 23.8432 18.4377 22.3312 18.4377Z" fill="white"/>
</g>
<defs>
<clipPath id="clip0_168_332">
<rect width="55.8279" height="47.2" fill="white" transform="matrix(1 0 0 -1 0 47.2002)"/>
</clipPath>
</defs>
</svg>
