<svg width="48" height="55" viewBox="0 0 48 55" fill="none" xmlns="http://www.w3.org/2000/svg">
<g clip-path="url(#clip0_168_322)">
<path d="M29.4241 34.6367C29.4241 34.6367 29.2701 34.472 28.9621 34.1426C28.654 33.8132 28.5 33.1615 28.5 32.1875C28.5 31.2135 28.808 30.3971 29.4241 29.7383C30.0402 29.0794 30.8036 28.75 31.7143 28.75C32.625 28.75 33.3884 29.0794 34.0045 29.7383C34.6205 30.3971 34.9286 31.2135 34.9286 32.1875C34.9286 33.1615 34.6205 33.9779 34.0045 34.6367C33.3884 35.2956 32.625 35.625 31.7143 35.625C30.8036 35.625 30.0402 35.2956 29.4241 34.6367ZM18.5759 34.6367C18.5759 34.6367 18.4219 34.8014 18.1138 35.1309C17.8058 35.4603 17.1964 35.625 16.2857 35.625C15.375 35.625 14.6116 35.2956 13.9955 34.6367C13.3795 33.9779 13.0714 33.1615 13.0714 32.1875C13.0714 31.2135 13.3795 30.3971 13.9955 29.7383C14.6116 29.0794 15.375 28.75 16.2857 28.75C17.1964 28.75 17.9598 29.0794 18.5759 29.7383C19.192 30.3971 19.5 31.2135 19.5 32.1875C19.5 33.1615 19.192 33.9779 18.5759 34.6367ZM42 13.4531V33.0469C42 35.1094 41.25 36.9714 39.75 38.6328C38.25 40.2943 36.3482 41.4401 34.0446 42.0703L38.7857 47.1406C38.9464 47.3125 38.9732 47.4987 38.8661 47.6992C38.7589 47.8997 38.5982 48 38.3839 48H34.5268C34.2589 48 34.0446 47.8854 33.8839 47.6562L28.9821 42.5H19.0179L14.1161 47.6562C13.9554 47.8854 13.7411 48 13.4732 48H9.61607C9.40179 48 9.24107 47.8997 9.13393 47.6992C9.02679 47.4987 9.05357 47.3125 9.21429 47.1406L13.9554 42.0703C11.7054 41.4401 9.81696 40.2943 8.29018 38.6328C6.76339 36.9714 6 35.1094 6 33.0469V13.4531C6 10.8177 7.15179 8.58333 9.45536 6.75C11.7589 4.91667 14.3036 4 17.0893 4H30.9107C33.75 4 36.308 4.90234 38.5848 6.70703C40.8616 8.51172 42 10.7604 42 13.4531ZM10.0982 12.25H37.9018C37.5268 11.1042 36.6562 10.1302 35.2902 9.32812C33.9241 8.52604 32.4643 8.125 30.9107 8.125H17.0893C15.5357 8.125 14.0893 8.52604 12.75 9.32812C11.4107 10.1302 10.5268 11.1042 10.0982 12.25ZM9.85714 23.25H22.0714V16.375H9.85714V23.25ZM38.1429 27.375H9.85714V33.0469C9.85714 34.5365 10.6473 35.7969 12.2277 36.8281C13.808 37.8594 15.4286 38.375 17.0893 38.375H30.9107C32.5714 38.375 34.192 37.8594 35.7723 36.8281C37.3527 35.7969 38.1429 34.5365 38.1429 33.0469V27.375ZM38.1429 16.375H25.9286V23.25H38.1429V16.375Z" fill="white"/>
</g>
<defs>
<clipPath id="clip0_168_322">
<rect width="36" height="44" fill="white" transform="matrix(1 0 0 -1 6 48)"/>
</clipPath>
</defs>
</svg>
