<svg width="44" height="44" viewBox="0 0 44 44" fill="none" xmlns="http://www.w3.org/2000/svg">
<g clip-path="url(#clip0_168_318)">
<path d="M17.0938 1.92773C17.0938 1.92773 17.8594 1.60645 19.3906 0.963867C20.9219 0.321289 23.875 0 28.25 0C32.625 0 36.3438 0.642578 39.4062 1.92773C42.4687 3.21289 44 4.75781 44 6.5625V24.9375C44 26.3594 43.0293 27.6309 41.0879 28.752C39.1465 29.873 36.6172 30.6523 33.5 31.0898V35.4375C33.5 37.2422 31.9687 38.7871 28.9062 40.0723C25.8438 41.3574 22.125 42 17.75 42C13.375 42 9.65625 41.3574 6.59375 40.0723C3.53125 38.7871 2 37.2422 2 35.4375V17.0625C2 15.6406 2.9707 14.3691 4.91211 13.248C6.85352 12.127 9.38281 11.3477 12.5 10.9102V6.5625C12.5 4.75781 14.0313 3.21289 17.0938 1.92773ZM29.5625 35.1094V31.9102C26.3906 33.3867 22.4531 34.125 17.75 34.125C13.0469 34.125 9.10938 33.3867 5.9375 31.9102V35.1094C6.48437 35.7656 7.82422 36.4219 9.95703 37.0781C12.0898 37.7344 14.6875 38.0625 17.75 38.0625C20.8125 38.0625 23.4102 37.7344 25.543 37.0781C27.6758 36.4219 29.0156 35.7656 29.5625 35.1094ZM29.5625 27.2344V23.543C26.3906 25.3477 22.4531 26.25 17.75 26.25C12.9922 26.25 9.05469 25.3477 5.9375 23.543V27.2344C6.48437 27.8906 7.82422 28.5469 9.95703 29.2031C12.0898 29.8594 14.6875 30.1875 17.75 30.1875C20.8125 30.1875 23.4102 29.8594 25.543 29.2031C27.6758 28.5469 29.0156 27.8906 29.5625 27.2344ZM9.38281 21.1641C9.38281 21.1641 9.95703 21.3555 11.1055 21.7383C12.2539 22.1211 14.4688 22.3125 17.75 22.3125C21.0312 22.3125 23.8203 21.9297 26.1172 21.1641C28.4141 20.3984 29.5625 19.4687 29.5625 18.375C29.5625 17.2813 28.4141 16.3516 26.1172 15.5859C23.8203 14.8203 21.0312 14.4375 17.75 14.4375C14.4688 14.4375 11.6797 14.8203 9.38281 15.5859C7.08594 16.3516 5.9375 17.2813 5.9375 18.375C5.9375 19.4687 7.08594 20.3984 9.38281 21.1641ZM40.0625 24.6094V21.4102C38.3125 22.2305 36.125 22.832 33.5 23.2148V27.1523C36.9453 26.5508 39.1328 25.7031 40.0625 24.6094ZM40.0625 16.7344V13.043C38.2031 14.1367 35.8242 14.9023 32.9258 15.3398C33.3086 15.9414 33.5 16.5156 33.5 17.0625V19.2773C36.9453 18.6758 39.1328 17.8281 40.0625 16.7344ZM28.25 11.8125C31.5312 11.8125 34.3203 11.4297 36.6172 10.6641C38.9141 9.89844 40.0625 8.96875 40.0625 7.875C40.0625 6.78125 38.9141 5.85156 36.6172 5.08594C34.3203 4.32031 31.5312 3.9375 28.25 3.9375C24.9688 3.9375 22.1797 4.32031 19.8828 5.08594C17.5859 5.85156 16.4375 6.78125 16.4375 7.875C16.4375 8.91406 17.5039 9.81641 19.6367 10.582C22.3711 10.6914 24.832 11.1016 27.0195 11.8125C27.7305 11.8125 28.1406 11.8125 28.25 11.8125Z" fill="#1A6BA1"/>
</g>
<defs>
<clipPath id="clip0_168_318">
<rect width="42" height="42" fill="white" transform="matrix(1 0 0 -1 2 42)"/>
</clipPath>
</defs>
</svg>
